<svg width="200" height="68" viewBox="0 0 200 68" fill="none" xmlns="http://www.w3.org/2000/svg">
<path d="M63.6703 26.27C62.7583 26.27 61.9363 26.111 61.2043 25.793C60.4723 25.475 59.8483 25.022 59.3323 24.434C58.8223 23.846 58.4323 23.138 58.1623 22.31C57.8923 21.476 57.7573 20.546 57.7573 19.52C57.7573 18.164 57.9913 16.982 58.4593 15.974C58.9333 14.96 59.6113 14.174 60.4933 13.616C61.3753 13.058 62.4343 12.779 63.6703 12.779C65.0503 12.779 66.1723 13.103 67.0363 13.751C67.9063 14.393 68.5123 15.257 68.8543 16.343L67.5223 16.667C67.2403 15.875 66.7753 15.242 66.1273 14.768C65.4853 14.294 64.6843 14.057 63.7243 14.057C62.7103 14.051 61.8673 14.279 61.1953 14.741C60.5233 15.197 60.0163 15.839 59.6743 16.667C59.3383 17.489 59.1673 18.44 59.1613 19.52C59.1553 20.6 59.3203 21.551 59.6563 22.373C59.9983 23.189 60.5083 23.831 61.1863 24.299C61.8643 24.761 62.7103 24.995 63.7243 25.001C64.6543 25.001 65.4223 24.821 66.0283 24.461C66.6343 24.101 67.0933 23.585 67.4053 22.913C67.7233 22.241 67.9033 21.446 67.9453 20.528H64.9573V19.394H69.3313C69.3493 19.532 69.3583 19.679 69.3583 19.835C69.3643 19.985 69.3673 20.093 69.3673 20.159C69.3673 21.329 69.1573 22.376 68.7373 23.3C68.3173 24.218 67.6843 24.944 66.8383 25.478C65.9983 26.006 64.9423 26.27 63.6703 26.27ZM75.2817 26.27C74.3337 26.27 73.5117 26.06 72.8157 25.64C72.1257 25.22 71.5887 24.629 71.2047 23.867C70.8207 23.105 70.6287 22.211 70.6287 21.185C70.6287 20.123 70.8177 19.205 71.1957 18.431C71.5737 17.657 72.1047 17.06 72.7887 16.64C73.4787 16.22 74.2917 16.01 75.2277 16.01C76.1877 16.01 77.0067 16.232 77.6847 16.676C78.3627 17.114 78.8757 17.744 79.2237 18.566C79.5717 19.388 79.7307 20.369 79.7007 21.509H78.3507V21.041C78.3267 19.781 78.0537 18.83 77.5317 18.188C77.0157 17.546 76.2597 17.225 75.2637 17.225C74.2197 17.225 73.4187 17.564 72.8607 18.242C72.3087 18.92 72.0327 19.886 72.0327 21.14C72.0327 22.364 72.3087 23.315 72.8607 23.993C73.4187 24.665 74.2077 25.001 75.2277 25.001C75.9237 25.001 76.5297 24.842 77.0457 24.524C77.5677 24.2 77.9787 23.735 78.2787 23.129L79.5117 23.606C79.1277 24.452 78.5607 25.109 77.8107 25.577C77.0667 26.039 76.2237 26.27 75.2817 26.27ZM71.5647 21.509V20.402H78.9897V21.509H71.5647ZM86.99 26C86.444 26.114 85.904 26.159 85.37 26.135C84.842 26.111 84.368 25.997 83.948 25.793C83.534 25.589 83.219 25.271 83.003 24.839C82.829 24.479 82.733 24.116 82.715 23.75C82.703 23.378 82.697 22.955 82.697 22.481V13.58H84.011V22.427C84.011 22.835 84.014 23.177 84.02 23.453C84.032 23.723 84.095 23.963 84.209 24.173C84.425 24.575 84.767 24.815 85.235 24.893C85.709 24.971 86.294 24.953 86.99 24.839V26ZM80.618 17.414V16.28H86.99V17.414H80.618ZM92.6885 14.435V12.95H94.0115V14.435H92.6885ZM92.6885 26V16.28H94.0115V26H92.6885ZM102.002 26C101.456 26.114 100.916 26.159 100.382 26.135C99.8537 26.111 99.3797 25.997 98.9597 25.793C98.5457 25.589 98.2307 25.271 98.0147 24.839C97.8407 24.479 97.7447 24.116 97.7267 23.75C97.7147 23.378 97.7087 22.955 97.7087 22.481V13.58H99.0227V22.427C99.0227 22.835 99.0257 23.177 99.0317 23.453C99.0437 23.723 99.1067 23.963 99.2207 24.173C99.4367 24.575 99.7787 24.815 100.247 24.893C100.721 24.971 101.306 24.953 102.002 24.839V26ZM95.6297 17.414V16.28H102.002V17.414H95.6297ZM111.579 26.27C110.613 26.27 109.788 26.051 109.104 25.613C108.42 25.175 107.895 24.569 107.529 23.795C107.163 23.021 106.98 22.133 106.98 21.131C106.98 20.111 107.166 19.217 107.538 18.449C107.91 17.681 108.438 17.084 109.122 16.658C109.812 16.226 110.631 16.01 111.579 16.01C112.551 16.01 113.379 16.229 114.063 16.667C114.753 17.099 115.278 17.702 115.638 18.476C116.004 19.244 116.187 20.129 116.187 21.131C116.187 22.151 116.004 23.048 115.638 23.822C115.272 24.59 114.744 25.19 114.054 25.622C113.364 26.054 112.539 26.27 111.579 26.27ZM111.579 25.001C112.659 25.001 113.463 24.644 113.991 23.93C114.519 23.21 114.783 22.277 114.783 21.131C114.783 19.955 114.516 19.019 113.982 18.323C113.454 17.627 112.653 17.279 111.579 17.279C110.853 17.279 110.253 17.444 109.779 17.774C109.311 18.098 108.96 18.551 108.726 19.133C108.498 19.709 108.384 20.375 108.384 21.131C108.384 22.301 108.654 23.24 109.194 23.948C109.734 24.65 110.529 25.001 111.579 25.001ZM125.193 26V21.041C125.193 20.501 125.142 20.006 125.04 19.556C124.938 19.1 124.773 18.704 124.545 18.368C124.323 18.026 124.032 17.762 123.672 17.576C123.318 17.39 122.886 17.297 122.376 17.297C121.908 17.297 121.494 17.378 121.134 17.54C120.78 17.702 120.48 17.936 120.234 18.242C119.994 18.542 119.811 18.908 119.685 19.34C119.559 19.772 119.496 20.264 119.496 20.816L118.56 20.609C118.56 19.613 118.734 18.776 119.082 18.098C119.43 17.42 119.91 16.907 120.522 16.559C121.134 16.211 121.836 16.037 122.628 16.037C123.21 16.037 123.717 16.127 124.149 16.307C124.587 16.487 124.956 16.73 125.256 17.036C125.562 17.342 125.808 17.693 125.994 18.089C126.18 18.479 126.315 18.896 126.399 19.34C126.483 19.778 126.525 20.216 126.525 20.654V26H125.193ZM118.164 26V16.28H119.361V18.674H119.496V26H118.164ZM63.8233 51.27C62.9833 51.27 62.1943 51.123 61.4563 50.829C60.7243 50.529 60.0793 50.091 59.5213 49.515C58.9693 48.939 58.5373 48.234 58.2253 47.4C57.9133 46.56 57.7573 45.6 57.7573 44.52C57.7573 43.104 58.0213 41.895 58.5493 40.893C59.0773 39.885 59.8003 39.114 60.7183 38.58C61.6363 38.04 62.6713 37.77 63.8233 37.77C65.4193 37.77 66.6823 38.142 67.6123 38.886C68.5483 39.624 69.1813 40.662 69.5113 42L67.2973 42.351C67.0513 41.583 66.6493 40.971 66.0913 40.515C65.5333 40.053 64.8223 39.822 63.9583 39.822C63.0883 39.81 62.3653 39.999 61.7893 40.389C61.2133 40.779 60.7783 41.328 60.4843 42.036C60.1963 42.744 60.0523 43.572 60.0523 44.52C60.0523 45.468 60.1963 46.293 60.4843 46.995C60.7723 47.691 61.2043 48.234 61.7803 48.624C62.3623 49.014 63.0883 49.215 63.9583 49.227C64.6123 49.233 65.1853 49.116 65.6773 48.876C66.1693 48.63 66.5713 48.261 66.8833 47.769C67.1953 47.271 67.4053 46.65 67.5133 45.906H65.2273V44.205H69.8173C69.8293 44.301 69.8383 44.442 69.8443 44.628C69.8503 44.814 69.8533 44.925 69.8533 44.961C69.8533 46.185 69.6103 47.274 69.1243 48.228C68.6443 49.176 67.9543 49.92 67.0543 50.46C66.1543 51 65.0773 51.27 63.8233 51.27ZM75.9539 51.27C74.9819 51.27 74.1329 51.051 73.4069 50.613C72.6809 50.175 72.1169 49.572 71.7149 48.804C71.3189 48.03 71.1209 47.142 71.1209 46.14C71.1209 45.12 71.3249 44.226 71.7329 43.458C72.1409 42.69 72.7079 42.09 73.4339 41.658C74.1599 41.226 74.9999 41.01 75.9539 41.01C76.9319 41.01 77.7839 41.229 78.5099 41.667C79.2359 42.105 79.7999 42.711 80.2019 43.485C80.6039 44.253 80.8049 45.138 80.8049 46.14C80.8049 47.148 80.6009 48.039 80.1929 48.813C79.7909 49.581 79.2269 50.184 78.5009 50.622C77.7749 51.054 76.9259 51.27 75.9539 51.27ZM75.9539 49.236C76.8179 49.236 77.4599 48.948 77.8799 48.372C78.2999 47.796 78.5099 47.052 78.5099 46.14C78.5099 45.198 78.2969 44.448 77.8709 43.89C77.4449 43.326 76.8059 43.044 75.9539 43.044C75.3719 43.044 74.8919 43.176 74.5139 43.44C74.1419 43.698 73.8659 44.061 73.6859 44.529C73.5059 44.991 73.4159 45.528 73.4159 46.14C73.4159 47.082 73.6289 47.835 74.0549 48.399C74.4869 48.957 75.1199 49.236 75.9539 49.236ZM87.0808 51.27C86.1088 51.27 85.2598 51.051 84.5338 50.613C83.8078 50.175 83.2438 49.572 82.8418 48.804C82.4458 48.03 82.2478 47.142 82.2478 46.14C82.2478 45.12 82.4518 44.226 82.8598 43.458C83.2678 42.69 83.8348 42.09 84.5608 41.658C85.2868 41.226 86.1268 41.01 87.0808 41.01C88.0588 41.01 88.9108 41.229 89.6368 41.667C90.3628 42.105 90.9268 42.711 91.3288 43.485C91.7308 44.253 91.9318 45.138 91.9318 46.14C91.9318 47.148 91.7278 48.039 91.3198 48.813C90.9178 49.581 90.3538 50.184 89.6278 50.622C88.9018 51.054 88.0528 51.27 87.0808 51.27ZM87.0808 49.236C87.9448 49.236 88.5868 48.948 89.0068 48.372C89.4268 47.796 89.6368 47.052 89.6368 46.14C89.6368 45.198 89.4238 44.448 88.9978 43.89C88.5718 43.326 87.9328 43.044 87.0808 43.044C86.4988 43.044 86.0188 43.176 85.6408 43.44C85.2688 43.698 84.9928 44.061 84.8128 44.529C84.6328 44.991 84.5428 45.528 84.5428 46.14C84.5428 47.082 84.7558 47.835 85.1818 48.399C85.6138 48.957 86.2468 49.236 87.0808 49.236ZM98.0008 55.59C97.4608 55.59 96.9418 55.506 96.4438 55.338C95.9518 55.17 95.5078 54.927 95.1118 54.609C94.7158 54.297 94.3918 53.919 94.1398 53.475L96.1378 52.485C96.3238 52.839 96.5848 53.1 96.9208 53.268C97.2628 53.442 97.6258 53.529 98.0098 53.529C98.4598 53.529 98.8618 53.448 99.2158 53.286C99.5698 53.13 99.8428 52.896 100.035 52.584C100.233 52.278 100.326 51.894 100.314 51.432V48.669H100.584V41.28H102.483V51.468C102.483 51.714 102.471 51.948 102.447 52.17C102.429 52.398 102.396 52.62 102.348 52.836C102.204 53.466 101.928 53.982 101.52 54.384C101.112 54.792 100.605 55.095 99.9988 55.293C99.3988 55.491 98.7328 55.59 98.0008 55.59ZM97.8118 51.27C96.9178 51.27 96.1378 51.045 95.4718 50.595C94.8058 50.145 94.2898 49.533 93.9238 48.759C93.5578 47.985 93.3748 47.112 93.3748 46.14C93.3748 45.156 93.5578 44.28 93.9238 43.512C94.2958 42.738 94.8208 42.129 95.4988 41.685C96.1768 41.235 96.9748 41.01 97.8928 41.01C98.8168 41.01 99.5908 41.235 100.215 41.685C100.845 42.129 101.322 42.738 101.646 43.512C101.97 44.286 102.132 45.162 102.132 46.14C102.132 47.106 101.97 47.979 101.646 48.759C101.322 49.533 100.839 50.145 100.197 50.595C99.5548 51.045 98.7598 51.27 97.8118 51.27ZM98.1448 49.326C98.7268 49.326 99.1948 49.194 99.5488 48.93C99.9088 48.66 100.17 48.285 100.332 47.805C100.5 47.325 100.584 46.77 100.584 46.14C100.584 45.504 100.5 44.949 100.332 44.475C100.17 43.995 99.9148 43.623 99.5668 43.359C99.2188 43.089 98.7688 42.954 98.2168 42.954C97.6348 42.954 97.1548 43.098 96.7768 43.386C96.3988 43.668 96.1198 44.052 95.9398 44.538C95.7598 45.018 95.6698 45.552 95.6698 46.14C95.6698 46.734 95.7568 47.274 95.9308 47.76C96.1108 48.24 96.3838 48.621 96.7498 48.903C97.1158 49.185 97.5808 49.326 98.1448 49.326ZM105.187 51V37.77H107.356V51H105.187ZM114.471 51.27C113.487 51.27 112.623 51.057 111.879 50.631C111.135 50.205 110.553 49.614 110.133 48.858C109.719 48.102 109.512 47.232 109.512 46.248C109.512 45.186 109.716 44.265 110.124 43.485C110.532 42.699 111.099 42.09 111.825 41.658C112.551 41.226 113.391 41.01 114.345 41.01C115.353 41.01 116.208 41.247 116.91 41.721C117.618 42.189 118.143 42.852 118.485 43.71C118.827 44.568 118.956 45.579 118.872 46.743H116.721V45.951C116.715 44.895 116.529 44.124 116.163 43.638C115.797 43.152 115.221 42.909 114.435 42.909C113.547 42.909 112.887 43.185 112.455 43.737C112.023 44.283 111.807 45.084 111.807 46.14C111.807 47.124 112.023 47.886 112.455 48.426C112.887 48.966 113.517 49.236 114.345 49.236C114.879 49.236 115.338 49.119 115.722 48.885C116.112 48.645 116.412 48.3 116.622 47.85L118.764 48.498C118.392 49.374 117.816 50.055 117.036 50.541C116.262 51.027 115.407 51.27 114.471 51.27ZM111.123 46.743V45.105H117.81V46.743H111.123ZM124.483 51V38.04H129.838C129.964 38.04 130.126 38.046 130.324 38.058C130.522 38.064 130.705 38.082 130.873 38.112C131.623 38.226 132.241 38.475 132.727 38.859C133.219 39.243 133.582 39.729 133.816 40.317C134.056 40.899 134.176 41.547 134.176 42.261C134.176 42.969 134.056 43.617 133.816 44.205C133.576 44.787 133.21 45.27 132.718 45.654C132.232 46.038 131.617 46.287 130.873 46.401C130.705 46.425 130.519 46.443 130.315 46.455C130.117 46.467 129.958 46.473 129.838 46.473H126.652V51H124.483ZM126.652 44.448H129.748C129.868 44.448 130.003 44.442 130.153 44.43C130.303 44.418 130.441 44.394 130.567 44.358C130.927 44.268 131.209 44.109 131.413 43.881C131.623 43.653 131.77 43.395 131.854 43.107C131.944 42.819 131.989 42.537 131.989 42.261C131.989 41.985 131.944 41.703 131.854 41.415C131.77 41.121 131.623 40.86 131.413 40.632C131.209 40.404 130.927 40.245 130.567 40.155C130.441 40.119 130.303 40.098 130.153 40.092C130.003 40.08 129.868 40.074 129.748 40.074H126.652V44.448ZM136.159 51V37.77H138.328V51H136.159ZM143.742 51.27C143.04 51.27 142.446 51.138 141.96 50.874C141.474 50.604 141.105 50.247 140.853 49.803C140.607 49.359 140.484 48.87 140.484 48.336C140.484 47.868 140.562 47.448 140.718 47.076C140.874 46.698 141.114 46.374 141.438 46.104C141.762 45.828 142.182 45.603 142.698 45.429C143.088 45.303 143.544 45.189 144.066 45.087C144.594 44.985 145.164 44.892 145.776 44.808C146.394 44.718 147.039 44.622 147.711 44.52L146.937 44.961C146.943 44.289 146.793 43.794 146.487 43.476C146.181 43.158 145.665 42.999 144.939 42.999C144.501 42.999 144.078 43.101 143.67 43.305C143.262 43.509 142.977 43.86 142.815 44.358L140.835 43.737C141.075 42.915 141.531 42.255 142.203 41.757C142.881 41.259 143.793 41.01 144.939 41.01C145.803 41.01 146.562 41.151 147.216 41.433C147.876 41.715 148.365 42.177 148.683 42.819C148.857 43.161 148.962 43.512 148.998 43.872C149.034 44.226 149.052 44.613 149.052 45.033V51H147.153V48.894L147.468 49.236C147.03 49.938 146.517 50.454 145.929 50.784C145.347 51.108 144.618 51.27 143.742 51.27ZM144.174 49.542C144.666 49.542 145.086 49.455 145.434 49.281C145.782 49.107 146.058 48.894 146.262 48.642C146.472 48.39 146.613 48.153 146.685 47.931C146.799 47.655 146.862 47.34 146.874 46.986C146.892 46.626 146.901 46.335 146.901 46.113L147.567 46.311C146.913 46.413 146.352 46.503 145.884 46.581C145.416 46.659 145.014 46.734 144.678 46.806C144.342 46.872 144.045 46.947 143.787 47.031C143.535 47.121 143.322 47.226 143.148 47.346C142.974 47.466 142.839 47.604 142.743 47.76C142.653 47.916 142.608 48.099 142.608 48.309C142.608 48.549 142.668 48.762 142.788 48.948C142.908 49.128 143.082 49.272 143.31 49.38C143.544 49.488 143.832 49.542 144.174 49.542ZM152.128 55.32L154 50.181L154.036 51.693L149.797 41.28H152.056L155.062 48.984H154.486L157.411 41.28H159.58L154.162 55.32H152.128Z" fill="white"/>
<g filter="url(#filter0_d_57_6)">
<rect x="4.5" y="0.5" width="191" height="59" rx="9.5" stroke="#E4E6EA" shape-rendering="crispEdges"/>
</g>
<path d="M44.5628 23.7206C39.714 21.1216 31.9316 16.9483 19.8605 10.471C19.0467 9.95589 18.1103 9.88839 17.3013 10.1508L38.0119 29.9985L44.5628 23.7206Z" fill="#32BBFF"/>
<path d="M17.3012 10.1509C17.1496 10.2001 17.002 10.2595 16.8609 10.3312C15.9675 10.7943 15.311 11.6855 15.311 12.8126V47.1846C15.311 48.3117 15.9674 49.2028 16.8609 49.6659C17.0018 49.7375 17.1493 49.7971 17.3007 49.8467L38.0119 29.9986L17.3012 10.1509Z" fill="#32BBFF"/>
<path d="M38.0119 29.9985L17.3008 49.8466C18.11 50.111 19.0464 50.0486 19.8605 49.5261C31.5669 43.244 39.2616 39.1201 44.1664 36.499C44.303 36.4255 44.4367 36.3536 44.569 36.2825L38.0119 29.9985Z" fill="#32BBFF"/>
<path d="M15.311 29.9985V47.1845C15.311 48.3116 15.9674 49.2028 16.8609 49.6658C17.0018 49.7375 17.1493 49.7971 17.3007 49.8466L38.0119 29.9985H15.311Z" fill="#2C9FD9"/>
<path d="M19.8606 10.4709C18.8942 9.85937 17.7545 9.87679 16.8611 10.3312L37.6977 30.2996L44.5628 23.7206C39.7141 21.1216 31.9317 16.9482 19.8606 10.4709Z" fill="#29CC5E"/>
<path d="M37.6978 29.6973L16.8611 49.6656C17.7546 50.1199 18.8942 50.1462 19.8606 49.5259C31.567 43.2438 39.2617 39.1199 44.1665 36.4988C44.3031 36.4253 44.4368 36.3534 44.5691 36.2823L37.6978 29.6973Z" fill="#D93F21"/>
<path d="M53.2108 29.9984C53.2108 29.046 52.7093 28.085 51.7155 27.552C51.7155 27.552 49.8569 26.5582 44.1599 23.5044L37.3835 29.9984L44.1665 36.4988C49.801 33.467 51.7154 32.4447 51.7154 32.4447C52.7093 31.9118 53.2108 30.9507 53.2108 29.9984Z" fill="#FFD500"/>
<path d="M51.7155 32.4449C52.7093 31.912 53.2108 30.9509 53.2108 29.9985H37.3835L44.1665 36.4989C49.801 33.4672 51.7155 32.4449 51.7155 32.4449Z" fill="#FFAA00"/>
<defs>
<filter id="filter0_d_57_6" x="0" y="0" width="200" height="68" filterUnits="userSpaceOnUse" color-interpolation-filters="sRGB">
<feFlood flood-opacity="0" result="BackgroundImageFix"/>
<feColorMatrix in="SourceAlpha" type="matrix" values="0 0 0 0 0 0 0 0 0 0 0 0 0 0 0 0 0 0 127 0" result="hardAlpha"/>
<feOffset dy="4"/>
<feGaussianBlur stdDeviation="2"/>
<feComposite in2="hardAlpha" operator="out"/>
<feColorMatrix type="matrix" values="0 0 0 0 0 0 0 0 0 0 0 0 0 0 0 0 0 0 0.25 0"/>
<feBlend mode="normal" in2="BackgroundImageFix" result="effect1_dropShadow_57_6"/>
<feBlend mode="normal" in="SourceGraphic" in2="effect1_dropShadow_57_6" result="shape"/>
</filter>
</defs>
</svg>
